<?xml version="1.0" standalone="no"?><!DOCTYPE svg PUBLIC "-//W3C//DTD SVG 1.1//EN" "http://www.w3.org/Graphics/SVG/1.1/DTD/svg11.dtd"><svg t="1648216957812" class="icon" viewBox="0 0 1024 1024" version="1.1" xmlns="http://www.w3.org/2000/svg" p-id="2448" xmlns:xlink="http://www.w3.org/1999/xlink" width="200" height="200"><defs><style type="text/css">@font-face { font-family: feedback-iconfont; src: url("//at.alicdn.com/t/font_1031158_u69w8yhxdu.woff2?t=1630033759944") format("woff2"), url("//at.alicdn.com/t/font_1031158_u69w8yhxdu.woff?t=1630033759944") format("woff"), url("//at.alicdn.com/t/font_1031158_u69w8yhxdu.ttf?t=1630033759944") format("truetype"); }
</style></defs><path d="M1024 497.662c0 15.06-2.532 29.463-6.231 43.433-0.228 1.41-0.397 2.804-0.589 4.209h-0.801c-22.403 76.552-96.326 133.128-185.02 133.128-64.071 0-120.407-29.665-155.433-74.796-33.193 44.526-94.244 74.796-164.903 74.796-70.4 0-131.27-30.029-164.562-74.281-34.744 44.833-90.665 74.281-154.25 74.281-89.862 0-164.717-58.435-185.125-136.855-0.374 1.27-1.052 2.434-1.387 3.72h-0.845C3.334 533.724 0 522.542 0 510.676c0-3.527 1.111-6.832 1.247-10.34 0-0.414-0.13-0.806-0.13-1.216 0-13.688 1.96-26.882 5.055-39.692 29.453-150.7 185.066-272.079 388.371-306.216 19.935 34.867 64.474 59.259 116.48 59.259 52.007 0 96.556-24.384 116.465-59.26 184.697 31.01 329.289 134.327 376.6 265.876 12.37 23.839 19.912 50.286 19.912 78.574M511.016 145.89c-36.089 0-65.178-31.192-63.814-69.13 1.237-34.272 28.406-62.614 61.254-63.95 36.429-1.485 66.406 28.867 66.406 66.512 0 36.772-28.58 66.568-63.846 66.568M350.52 673.117c34.135 45.668 93.128 76.03 160.502 76.03 66.317 0 124.726-29.315 159.097-73.807 34.15 44.377 92.831 73.807 159.709 73.807 26.731 0 52.106-4.754 75.21-13.2l-62.994 231.914c-6.973 25.664-29.435 43.382-55.01 43.382h-552.05c-25.57 0-48.036-17.718-55.004-43.382l-64.236-236.483c23.363 8.67 49.07 13.594 76.176 13.594 65.991 0.02 124.185-28.485 158.602-71.855" fill="#FFAC27" p-id="2449"></path></svg>